<svg id="BG" xmlns="http://www.w3.org/2000/svg" xmlns:xlink="http://www.w3.org/1999/xlink" width="1920" height="1445" viewBox="0 0 1920 1445">
  <defs>
    <clipPath id="clip-path">
      <rect id="Rectangle_3" data-name="Rectangle 3" width="1920" height="1445" fill="#fff" stroke="#707070" stroke-width="1"/>
    </clipPath>
  </defs>
  <rect id="BG-2" data-name="BG" width="1920" height="1445" fill="#252934"/>
  <g id="Mask_Group_1" data-name="Mask Group 1" opacity="0.099" clip-path="url(#clip-path)">
    <g id="Group_3" data-name="Group 3" transform="translate(-498.932 -632.215)">
      <path id="Path_3" data-name="Path 3" d="M663.249,0,617.968,551.1H0Z" transform="translate(0 1680.134) rotate(-90)" fill="#0a0d15"/>
      <g id="Path_4" data-name="Path 4" transform="translate(1726.263 1490.243) rotate(135)" fill="none">
        <path d="M174.818-19.948,487.154,1160l-619.362-1.394Z" stroke="none"/>
        <path d="M 174.8715667724609 7.6112060546875 L -123.156494140625 1151.6298828125 L 478.054443359375 1152.983520507812 L 174.8715667724609 7.6112060546875 M 174.8175506591797 -19.9483642578125 L 487.1538696289062 1160.004028320312 L -132.2083129882812 1158.609497070312 L 174.8175506591797 -19.9483642578125 Z" stroke="none" fill="#050810"/>
      </g>
      <path id="Path_5" data-name="Path 5" d="M616.934,53.276,716.75,639.728,31.777,433.794Z" transform="translate(266.74 406.927) rotate(22)" fill="#1c212e"/>
      <path id="Path_2" data-name="Path 2" d="M325.975,37.2,535.131,665.251,47.7,418.043Z" transform="translate(746.692 1997.894) rotate(-135)" fill="#181a21"/>
      <path id="Path_1" data-name="Path 1" d="M156.683-13.968l948.832,851.378-1169.06-1.89Z" transform="translate(1979.7 2243.891) rotate(157)" fill="#0f131d"/>
      <path id="Polygon_1" data-name="Polygon 1" d="M560.536,0l560.536,239.955H0Z" transform="translate(1604.115 586.272) rotate(90)" fill="#252934"/>
      <g id="Path_6" data-name="Path 6" transform="translate(1967.063 2102.616) rotate(157)" fill="none">
        <path d="M156.683-13.968l948.832,851.378-1169.06-1.89Z" stroke="none"/>
        <path d="M 157.23876953125 -12.12628173828125 L -62.2535400390625 834.5210571289062 L 1102.898559570312 836.4051513671875 L 157.23876953125 -12.12628173828125 M 156.6832275390625 -13.96832275390625 L 1105.515014648438 837.409423828125 L -63.54541015625 835.5189819335938 L 156.6832275390625 -13.96832275390625 Z" stroke="none" fill="#0f131d"/>
      </g>
      <g id="Path_7" data-name="Path 7" transform="matrix(-0.966, 0.259, -0.259, -0.966, 1647.744, 1824.563)" fill="#0a0d15">
        <path d="M 490.7967834472656 1313.654052734375 L -61.99616622924805 1269.91943359375 L 158.1823272705078 6.733246326446533 L 490.7967834472656 1313.654052734375 Z" stroke="none"/>
        <path d="M 158.8228759765625 23.4412841796875 L -57.88803100585938 1266.7333984375 L 486.1988830566406 1309.779418945312 L 158.8228759765625 23.4412841796875 M 157.5418090820312 -9.97412109375 L 495.3943481445312 1317.528686523438 L -66.10418701171875 1273.105224609375 L 157.5418090820312 -9.97412109375 Z" stroke="none" fill="#050810"/>
      </g>
      <g id="Path_8" data-name="Path 8" transform="translate(129.186 1680.134) rotate(-90)" fill="none">
        <path d="M663.249,0,617.968,551.1H0Z" stroke="none"/>
        <path d="M 660.865966796875 4.5804443359375 L 5.536376953125 549.1038818359375 L 616.125244140625 549.1038818359375 L 660.865966796875 4.5804443359375 M 663.2490234375 0 L 617.9676513671875 551.1038818359375 L -6.103515625e-05 551.1038818359375 L 663.2490234375 0 Z" stroke="none" fill="#0a0d15"/>
      </g>
      <path id="Path_9" data-name="Path 9" d="M561.352,58.83,584.5,712.4,61.476,657.583Z" transform="translate(2474.751 0) rotate(30)" fill="#0a0d15"/>
      <g id="Path_10" data-name="Path 10" transform="matrix(-0.259, -0.966, 0.966, -0.259, 1742.384, 1975.065)" fill="none">
        <path d="M192.093,9.974l567.9,1135.757L66.1,1044.114Z" stroke="none"/>
        <path d="M 196.2303466796875 33.899658203125 L 73.879150390625 1038.177612304688 L 747.7330322265625 1136.860717773438 L 196.2303466796875 33.899658203125 M 192.0934448242188 9.97412109375 L 759.9946899414062 1145.731079101562 L 66.10418701171875 1044.113647460938 L 192.0934448242188 9.97412109375 Z" stroke="none" fill="#050810"/>
      </g>
      <path id="Path_11" data-name="Path 11" d="M653.549-74.415l1.112,545.333L-44.386,411.954Z" transform="matrix(-0.788, 0.616, -0.616, -0.788, 3218.144, 927.117)" fill="#1c212e"/>
      <path id="Path_12" data-name="Path 12" d="M293.761-18.6l90.611,664.7L-23.851,459.354Z" transform="matrix(0.966, -0.259, 0.259, 0.966, 1882.588, 654.362)" fill="#181a21"/>
      <path id="Path_13" data-name="Path 13" d="M189.014-4.7,1395.986,741.175-21.371,688.44Z" transform="matrix(0.122, -0.993, 0.993, 0.122, 1096.684, 1874.266)" fill="#0f131d"/>
      <path id="Path_30" data-name="Path 30" d="M474.419,49.72,975.606,385.757,26.767,286.318Z" transform="translate(2425.955 2294.016) rotate(-150)" fill="#252934"/>
      <g id="Path_14" data-name="Path 14" transform="matrix(0.122, -0.993, 0.993, 0.122, 1200.289, 1931.139)" fill="none">
        <path d="M189.014-4.7,1395.986,741.175-21.371,688.44Z" stroke="none"/>
        <path d="M 189.59326171875 -3.16400146484375 L -20.0372314453125 687.4887084960938 L 1392.2392578125 740.034912109375 L 189.59326171875 -3.16400146484375 M 189.0137939453125 -4.69769287109375 L 1395.986450195312 741.1749877929688 L -21.3709716796875 688.4397583007812 L 189.0137939453125 -4.69769287109375 Z" stroke="none" fill="#0f131d"/>
      </g>
      <g id="Path_15" data-name="Path 15" transform="matrix(0.259, -0.966, 0.966, 0.259, 1551.422, 1722.388)" fill="#0a0d15">
        <path d="M 614.2205810546875 1070.372680664062 L -61.6898193359375 1040.803466796875 L 192.8741302490234 1.549717903137207 L 614.2205810546875 1070.372680664062 Z" stroke="none"/>
        <path d="M 193.65478515625 13.0736083984375 L -57.27557373046875 1037.493286132812 L 608.987060546875 1066.640502929688 L 193.65478515625 13.0736083984375 M 192.0933532714844 -9.97412109375 L 619.4541015625 1074.105102539062 L -66.10418701171875 1044.11376953125 L 192.0933532714844 -9.97412109375 Z" stroke="none" fill="#050810"/>
      </g>
      <g id="Path_16" data-name="Path 16" transform="translate(2410.159 140.7) rotate(30)" fill="none">
        <path d="M561.352,58.83,584.5,712.4,61.476,657.583Z" stroke="none"/>
        <path d="M 559.5382080078125 64.12347412109375 L 65.41552734375 655.9852905273438 L 582.4229736328125 710.1683349609375 L 559.5382080078125 64.12347412109375 M 561.3519287109375 58.830322265625 L 584.5032348632812 712.3972778320312 L 61.47601318359375 657.5833740234375 L 561.3519287109375 58.830322265625 Z" stroke="none" fill="#0a0d15"/>
      </g>
    </g>
  </g>
</svg>
